{
    "asset" : {
        "generator" : "Khronos glTF Blender I/O v1.7.33",
        "version" : "2.0"
    },
    "scene" : 0,
    "scenes" : [
        {
            "name" : "Scene",
            "nodes" : [
                0,
                1
            ]
        }
    ],
    "nodes" : [
        {
            "mesh" : 0,
            "name" : "blank hoodie.002",
            "rotation" : [
                0.7071068286895752,
                0,
                0,
                0.7071067094802856
            ],
            "scale" : [
                0.00953767728060484,
                0.00953767728060484,
                0.00953767728060484
            ],
            "translation" : [
                -0.0363011360168457,
                -0.32858073711395264,
                0
            ]
        },
        {
            "mesh" : 1,
            "name" : "blank hoodie.001",
            "rotation" : [
                0.7071068286895752,
                0,
                0,
                0.7071067094802856
            ],
            "scale" : [
                0.00953767728060484,
                0.00953767728060484,
                0.00953767728060484
            ],
            "translation" : [
                -0.0363011360168457,
                -0.32858073711395264,
                0
            ]
        }
    ],
    "materials" : [
        {
            "doubleSided" : true,
            "name" : "body",
            "pbrMetallicRoughness" : {
                "baseColorFactor" : [
                    0.800000011920929,
                    0.800000011920929,
                    0.800000011920929,
                    1
                ],
                "metallicFactor" : 0,
                "roughnessFactor" : 0.5
            }
        },
        {
            "doubleSided" : true,
            "name" : "decal",
            "pbrMetallicRoughness" : {
                "metallicFactor" : 0,
                "roughnessFactor" : 0.5
            }
        }
    ],
    "meshes" : [
        {
            "name" : "blank hoodie.002",
            "primitives" : [
                {
                    "attributes" : {
                        "POSITION" : 0,
                        "NORMAL" : 1,
                        "TEXCOORD_0" : 2
                    },
                    "indices" : 3,
                    "material" : 0
                }
            ]
        },
        {
            "name" : "blank hoodie.001",
            "primitives" : [
                {
                    "attributes" : {
                        "POSITION" : 4,
                        "NORMAL" : 5,
                        "TEXCOORD_0" : 6
                    },
                    "indices" : 7,
                    "material" : 1
                }
            ]
        }
    ],
    "accessors" : [
        {
            "bufferView" : 0,
            "componentType" : 5126,
            "count" : 39160,
            "max" : [
                577.409912109375,
                158.43698120117188,
                371.53900146484375
            ],
            "min" : [
                -577.3359375,
                -149.1034698486328,
                -564.335693359375
            ],
            "type" : "VEC3"
        },
        {
            "bufferView" : 1,
            "componentType" : 5126,
            "count" : 39160,
            "type" : "VEC3"
        },
        {
            "bufferView" : 2,
            "componentType" : 5126,
            "count" : 39160,
            "type" : "VEC2"
        },
        {
            "bufferView" : 3,
            "componentType" : 5123,
            "count" : 211725,
            "type" : "SCALAR"
        },
        {
            "bufferView" : 4,
            "componentType" : 5126,
            "count" : 548,
            "max" : [
                115.12998962402344,
                132.53604125976562,
                25.9962158203125
            ],
            "min" : [
                -124.48045349121094,
                48.004966735839844,
                -209.5245361328125
            ],
            "type" : "VEC3"
        },
        {
            "bufferView" : 5,
            "componentType" : 5126,
            "count" : 548,
            "type" : "VEC3"
        },
        {
            "bufferView" : 6,
            "componentType" : 5126,
            "count" : 548,
            "type" : "VEC2"
        },
        {
            "bufferView" : 7,
            "componentType" : 5123,
            "count" : 2184,
            "type" : "SCALAR"
        }
    ],
    "bufferViews" : [
        {
            "buffer" : 0,
            "byteLength" : 469920,
            "byteOffset" : 0
        },
        {
            "buffer" : 0,
            "byteLength" : 469920,
            "byteOffset" : 469920
        },
        {
            "buffer" : 0,
            "byteLength" : 313280,
            "byteOffset" : 939840
        },
        {
            "buffer" : 0,
            "byteLength" : 423450,
            "byteOffset" : 1253120
        },
        {
            "buffer" : 0,
            "byteLength" : 6576,
            "byteOffset" : 1676572
        },
        {
            "buffer" : 0,
            "byteLength" : 6576,
            "byteOffset" : 1683148
        },
        {
            "buffer" : 0,
            "byteLength" : 4384,
            "byteOffset" : 1689724
        },
        {
            "buffer" : 0,
            "byteLength" : 4368,
            "byteOffset" : 1694108
        }
    ],
    "buffers" : [
        {
            "byteLength" : 1698476,
            "uri" : "data:application/octet-stream;base64,"
        }
    ]
}
